/* XPM */
static char *_746112335018[] = {
/* columns rows colors chars-per-pixel */
"35 35 16 1 ",
"  c #EC1C24",
". c #ED1C24",
"X c #EC1D24",
"o c #ED1D24",
"O c #EC1C25",
"+ c #ED1C25",
"@ c #EC1D25",
"# c #ED1D25",
"$ c #22B04C",
"% c #23B04C",
"& c #22B14C",
"* c #23B14C",
"= c #22B04D",
"- c #23B04D",
"; c #22B14D",
": c #23B14D",
/* pixels */
"++OX . Xooo@ .@o X+X++X@X X#@OOXo@X",
"O#+@# @+.##@. ooXO@+OX###O+XX +..#@",
" O# #Oo +X@O+ O.OOoo@oX@X+O+ Xo.X++",
"+X@++O@###.+OX+O+Xo#XXo .XoO+#.o.O@",
"#oX %%*&%&&:&*%@#*+OO .o O+;.o@oX#O",
"O#O#;X+X oO. @#X#@%X@X#. .* O+ o@#X",
"X@O =+X @#.+O+@#+XO=X#X@.-#.O  XOoX",
"@oO@:X  o @o#X X .#X$X.#$+.#.+OX.@X",
"o .o$O@.. o #..#o.@++: %  .o+X  X##",
".@XO&*-*:**X.##oOo#+#X; + @..oO.oo@",
"oOo.: @OXXO+Oo  O . o:+-OO.+ .@ @+o",
"X+.@$@O #O@ #O.+ X.o=+#+:@@++o@ #o ",
"Oo@+: X@@.#o o++.o.-X@.OO:@OOo @+#+",
"@@O.%+XOX+Xoo. +#+%X# #O+O%o#Oo+ OX",
" +O#$:%$=*;$*;:.@- .X@o@X.+&o@o@#.#",
"#+Oo.#X#OO+#@@ XO.+X+O+XOOOX. +++ .",
"+##XX+O O    +O.@O#+@##++ ##@XXX. o",
"oXO++oX+# .@o#XX@O#@@@ooX@O.. +@ o#",
"XXX.#O #OO@ O.# o#o#@@X#ooOO+ +@X.o",
"@o@o&&;&=&*-*;;. :&$&&&;;$$*+o#o@oX",
"#. + oO #:+XOoo++oO. X&#@o@ #.@##O@",
"+.O@  O.@&O+O@XX. ## +$O OO..X@. @ ",
"X+@OX#+O+$.X  X+X@@X@+&+#O.+. +Xo.O",
".++ ..oO@%o#oooX.Xo.+o$@ .#.o#+X@X+",
" #+o.@##o-X@o.@ +o...+&@o+o#.OXOXo.",
" ooOo@o@O$#OO#OOoo O O:X #@O @#+# #",
"oX#X@O+X.; @O.o# @.OX.&oOO #O+@@OOo",
" oO+o @#o=@oo@X@o #@XX&@.@+ .. @ o.",
"+ @o XOX.&@#o..O#.#+ @&Oo..X O@OOoX",
".o.o@ @ O=o.+.@O+. @X@$##..+o.#XOoO",
" X.+;;;**;*$&:&X+O@XO &# ++.++X@##X",
".oO #@X.+o++#. X X..o# O#O@ @+o@+X@",
"X.X@Oo@o @#.O ...@ XX@+X ooOXXo+X #",
"@##+@ X@O@ +O@oOo##o@XO@O@+@@@X@ O.",
"+.X+X @.+X..+ XoO.o.X#@#@OXOo.+@Oo+"
};
