/* XPM */
static char *_746112447457[] = {
/* columns rows colors chars-per-pixel */
"35 35 16 1 ",
"  c black",
". c #010000",
"X c #000100",
"o c #010100",
"O c #000001",
"+ c #010001",
"@ c #000101",
"# c #010101",
"$ c #B4B4B4",
"% c #B5B4B4",
"& c #B4B5B4",
"* c #B5B5B4",
"= c #B4B4B5",
"- c #B5B4B5",
"; c #B4B5B5",
": c gray71",
/* pixels */
"::;&*-*=%*:%:=$-$=*--&%&&=:;&=;=%;;",
"%:%-$&;%:-$;;:$&*&**$**=-*=-&--:==%",
";$;$&-*-@ *=;;$=-&=&;**:=$*-%$;==&&",
";*$$;& #+.X;;*:;;*=&&==$;$&=*$-&$%$",
"&=:&;.X%&;X@;--$%%=$%&%:%-$*$&-=%-$",
"&$;= #=%$:*X&;:%:&&*&;:-%&=-=%-;$%-",
"-:%X$XX$:$&%=$:*=:=:$%%:%:&$:%-$&&-",
"$;. ;;o=$$$%$XX;***$=;:$&=&:$;-%%;-",
"$%.=$$=$;$$%. -:-=$$%--%-:&--%$*%:;",
"-@+*-:;:$=X@O**::;:-*:*%;-$----$;%$",
"-&&$-&:&&. *;==-::&--$*$;;$%*:%&;&$",
"&-;;$$*@#&=;-=:=$X +O$$%=&*$%:%=&*%",
"$:;%&+ #&;-&%=*&  &&. -:%*--$*=%:%*",
":-*%*XO-*:%=:$$+@:&;$.-$-;&%%-$:%&=",
"=:-:%&+O---&=.O=%:&=-o;;;;%:$%;=:&*",
"*=%*=$$+.-$:OO;;=%***X;=*$=;$=-*&%:",
":&**;:*=X:%O &;=%&%= @$$.  *:=%*&==",
"&&$%=&=$:=O &;*;%:  &$$.O%*O=$:=%$$",
"%*&;*%;:--. &$=-&;O&&:..%*%. =:;*$&",
"&$&;:$&*:$%.o$$*:o:*=O $:&;.*--*:=%",
"%*$&=&%$=$-;@X@.@=-o $$&-&OX:&*-&;;",
"**%-$&&%;=$-$;*=;&XO**&%;#.$-@   &*",
"*-*&=;*$:&:-$%==OO :*=*$;X:=  && %:",
"--;*=&$%=*:%;=$;O*;;-&%* -=O.;*&X.%",
"$*-$;=%*&;%*=-$- o-&$-X+*:..&:%*= =",
";=$;%-;$%$:;$$%=%oo $+ %XX  $&;%- *",
"&%$-;%$=%;%:*$%$&%$X @&. *$       &",
"=%;%:&$-*=-&;=-&&&:;$-O.==$  *;%*:*",
"==;%**==-&*-&*$=$;%-**.%;$$= *$$=&;",
":*%-;$:=%*&*:%&&$;*&-%$:&$:$ -;;%$$",
"%;:-=-%&=&-==-*;=-&%=:;*%:%$ &%*;:-",
"%$=;;=$%==%;==-%&-%&*&--:% . %$;*&&",
"&*;;$;;===&%;-;=&=:---&$:&;;;::&-$-",
"*$%$%$--;%;;&*$=:*%;=$$-&*:%$$=-*%:",
"%$:*-%$%$&;%-==*=;%;$%-=&%&*:&:=$::"
};
