/* XPM */
static char *_746112465832[] = {
/* columns rows colors chars-per-pixel */
"35 35 16 1 ",
"  c #FE7E00",
". c #FF7E00",
"X c #FE7F00",
"o c #FF7F00",
"O c #FE7E01",
"+ c #FF7E01",
"@ c #FE7F01",
"# c #FF7F01",
"$ c #FEF200",
"% c #FFF200",
"& c #FEF300",
"* c #FFF300",
"= c #FEF201",
"- c #FFF201",
"; c #FEF301",
": c #FFF301",
/* pixels */
"&$:;;-==%&%%--;-$&$;:$&==-;;:-:==-%",
";**%:;;%*;***$-%=--%:%%$&*::&&&&$*&",
"&$=-**:%$*=*--$;%&::-*%$&*=$*&--$==",
"%;=;-$%*;&=*==;%&%=&&-=&$;::*$;:;-;",
";*:$%%%;;-&$$:*$&&;%$-=:=$$==;%%=:%",
":&%%:@.OOX#O@O.o=$$oXO@X@.+Xo.%;-*-",
"***:%&-=;&@&&%;*&*:-*-:-@;$&-%=&=$=",
"**:;&$-%&=O%:%&*-==*%*=$X$*$::=$*%%",
"%&-;&::$$*.%=&*&$*-;*$;& $&:;%=*-:$",
";-&;$%$$&*@$$=-;*=$;;-*;O-::%=-&%-*",
":=;=%&;;$$#*%*;-&&$=&%=-.***-%-;*:-",
"&:=%&**$%- ---*:-=*=$*:&+:$**&%&$%=",
"-;$&&;$;$$.&*$%;;$-*-::%#:$&:;$-:&$",
";$*%:@+@#   # OO%-;&%$;*X:-&%$:&;-$",
"=*&-==%%;:;*:*:==$$;%--;:-*=:*=&;;*",
"&:=-%=&&:*$&==-;&=**-;&&-:*:--*$:--",
"-;=;:;:%&$;::=%:%%&=;:*=:$*-=$-=;;-",
"%:;:$*$&%---=&==%%%%-::::&:*&%&&&=%",
"%;-&:+.+ +  +o X==*% $$-;$%$.*;:$%-",
";*%&%X:;%$%-%%&-=*$& @--:;$+.-*;$=$",
"%*=:% :%%$=;:$%&-*:;@:X*&;#= -**-=&",
"-&;%:#*-%&=;-$:*&$:& %-+;o&$o:-%*;&",
"::=&*.&:$***;*-=-&$-O%$-@$--.:&%*--",
"=*%&%.:&%%:*;%-%=;:=O;%:%&--X=&**;%",
";%;$$++.o+X+-:&*%-:$O:=&$:%:@%$=&*;",
"&&$:;@=:&-$&$%;*&%=-.:=%;=*:.;-$%%$",
":;%:$ &&::%:$$*;$%*=.-:%&%*=.%:&$;-",
"-%-$: -==:$&$%=-*;$$O%-=;&-&.%$&&:%",
";*:%$O%%&$&-%*&***$: %:---*%.;-%*:=",
"%&&=$.+#o+OO Xo &--%X;*&%&$%o;;*$=;",
":$&-%$-&*:*=&::=%*:-=*=*%;;:%;;-%=:",
"-*=$&&$;&:&**&:;&&;;$:*;;=*$;::%-*%",
"$$&::&=-==--&&*$*-==;==*%-;%:&=&:=$",
"%*$%&%:=:;*%;$&**--$*;%&*==%;&*:-;-",
";;$;$=%$%;;$*;$$::;&=-:-%=;-:*=&-$$"
};
