/* XPM */
static char *_746112484021[] = {
/* columns rows colors chars-per-pixel */
"35 35 16 1 ",
"  c #E000FE",
". c #E100FE",
"X c #E001FE",
"o c #E101FE",
"O c #E000FF",
"+ c #E100FF",
"@ c #E001FF",
"# c #E101FF",
"$ c #FEA2B0",
"% c #FFA2B0",
"& c #FEA3B0",
"* c #FFA3B0",
"= c #FEA2B1",
"- c #FFA2B1",
"; c #FEA3B1",
": c #FFA3B1",
/* pixels */
":::-:-::-:-::-**:;-:;:::::*:;&;:;::",
"::::;::::::::*:::-*;;:$%-:*:%=;:*::",
":-;::*=:::;;::*::::::::;:::;::-:;::",
"*::;:-::::::-&*::;;-%::&;::*:;--::*",
":%=*;::::*%=:::-&:::=;;;*:;:-:::::;",
"*:=&:&::;*;*:-::;-::::*--:::::;::=:",
":::::::-*::%::::-=--:;:::::-:*:;-:&",
"::;:o::*::*O::&::::*:::.-*&:*:+:::-",
":::; ;-:::%.::::-*;::;&#-*::::+-:::",
"::::+:&:::;O::::;::::&:#::::*:@-:*:",
":;-*@:=-:%= ::;:;**;:-*#--:::: :=*:",
"::::#:-=:;:@&;-::-::::;#--;;*;+=*&;",
"-:-% ::*:-:.::*::=:::-: -*::*=+:*%&",
"-::-.:::*::+--:*;::*=::.:::::;+*-::",
":::; ::;;-:X:$:*:-::-::.-:::=;O::;:",
"*:::X:*::*:O:-*;$;*:-::o-*::;:o:::-",
"::::.+X @X  :::::;:::::XXX+#O o*-;:",
":;-:%:*;::::;:;:::-::::::::::::::::",
":-::::::::::**;-::;::;:-::*=:-*:%:;",
":-:::::-::*:*:::::;:;&*;:%::;$::-:=",
":*:::=-::%:::*;::;$%:---::*--:;:::-",
":;:::*::* :-:=:*::::*:;:: -::;%:%-:",
";::;-:%::&@::;:-:%;*::=:#::*-*;;-:*",
"::::*:;*;::@;;;:*#;;*:-O:***;%:%;:-",
"*::::::-::-;O-*:.;X*:* =*:-:-::*::=",
":*=:**::;::::.:o:::#;O=:;:::::::;:-",
"*;:**::::;:=::#:::;:O::*:*:::;-:&:&",
":::;:**:::*::;-*::::;;*;;:%-*:&=-:*",
":;:::::&:**::**%&::::::::*::::-::-:",
":::;:*;-:=:*:-=::::::**::=-:-;:;:::",
":;**%::::-:*:::::::*:::;;;;;*-::-&:",
"::&-:*-*;:::::*::-::=:%::*:::::-=&;",
";*:*:;:::::*%;-=:::=::*:-*%::::*::;",
":-:&:-:&%:::::;:;;*-:::*:&;::*::;-:",
"::*=:--::::-;;:*:-=:**::;:--::*::::"
};
