/* XPM */
static char *_746112511923[] = {
/* columns rows colors chars-per-pixel */
"35 35 16 1 ",
"  c black",
". c #010000",
"X c #000100",
"o c #010100",
"O c #000001",
"+ c #010001",
"@ c #000101",
"# c #010101",
"$ c #E000FE",
"% c #E100FE",
"& c #E001FE",
"* c #E101FE",
"= c #E000FF",
"- c #E100FF",
"; c #E001FF",
": c #E101FF",
/* pixels */
"%*;$:&*;:*-$=*-%&OX X O OO@XO  XO  ",
":%----==-%:$-;&:*       .X.oX   OX ",
":--::::%%---:--*; .X# o .O .O  XXX.",
";$;%-%=%:--:-:-::.O#O+O X X@OX . O.",
";:==$:=-%=%-=-=;;.   .X o. .XO   ..",
"*:=-$----::-:--;$o+X#OXOX . .X. # O",
";-*;:---:-%=--%&&+  Oo@ oo #..  o X",
"=:%$&*;-:--:-=-%:OX.X.O  OX o ++X +",
";-=;%-;-=--=--:&;XXO@#X+O  .OOO   O",
"&;:=:--;%-%----=:@@@ O oOX@XXoOo  #",
"%$-=---%$-:--=--;O.  @.XX.@@.X.  .o",
"=--*=%:-==$:-%-;-  X O  +  + o   Oo",
":*:*-:%--*-;-$=:*@  . o  O.     O@ ",
"$;--=%---:%%==*$:@.+ XX.+  + @X.  O",
"%:-=%::=&:;-:---%O  ..OX  OO.O ..X.",
"$;$=-:&**:$;:=*=:o O  Xo +O+ .OXXOO",
";:;-%::;::%;----=@..X@   . oXX @   ",
"O..O  O#   O@X XX:-=*&$%=---*---%-*",
".   @ +    O .X O:--=----%----%%--=",
"X@X X.  .O#   o  --%-*-$:-----=-=*=",
"..XX@.+    + . XO=---=---%-:-:%--%=",
".X #  O X.X+ O  X:-%*------=--:---;",
".   X.   .@O.+.@O:=%:%%-=$----=%-:*",
"# .OO   X X.O .. $=--;--%--%=--=--;",
"o +. . . #  O   #%-:-*%:-$:%---=--&",
"oXoOX .O O+  X  .*---$:---%=%-=%--;",
".  X X.#O     XX ;%--%*=----:---=--",
"X.o  O   OO  X  O-:%--:%-:-----%$-*",
".O .. XO+ O   X o*--::--&---:-:-:%:",
". O.o+ X.o  XXX.o%---:=-%----:--=-=",
" o..X#..OoO O .. *=%-:*---=-;=----=",
".O.  O         + :--%----=&-%-:$=--",
"oXO   o   .. .  @=-%-%::--*-%----:*",
"+ o@  X@O  X X  .:--*:-----$;-*--%*",
" OO@     .X oX .X:%=-=--$%:%-$**=*&"
};
